<?xml version="1.0" encoding="utf-8"?>
<!-- Generator: Adobe Illustrator 27.3.1, SVG Export Plug-In . SVG Version: 6.00 Build 0)  -->
<svg version="1.1" id="Layer_1" xmlns="http://www.w3.org/2000/svg" xmlns:xlink="http://www.w3.org/1999/xlink" x="0px" y="0px"
	 viewBox="0 0 1080 1080" style="enable-background:new 0 0 1080 1080;" xml:space="preserve">
<style type="text/css">
	.st0{fill:none;stroke:#000000;stroke-width:22;stroke-miterlimit:10;}
	.st1{fill:none;}
	.st2{fill:none;stroke:#000000;stroke-width:0.5;stroke-miterlimit:10;}
	.st3{stroke:#FFFFFF;stroke-miterlimit:10;}
	.st4{fill:none;stroke:#000000;stroke-width:11;stroke-miterlimit:10;}
	.st5{fill:#FFFFFF;}
	.st6{fill:none;stroke:#000000;stroke-width:20;stroke-miterlimit:10;}
</style>
<g>
	<g>
		<path class="st5" d="M408.64,723.24h45.66c7.79,0,14.58,1.33,20.37,4c5.79,2.67,10.27,6.48,13.45,11.45
			c3.18,4.97,4.77,10.74,4.77,17.29c0,4.92-1.08,9.33-3.23,13.22c-2.15,3.9-5.05,7.05-8.69,9.45c-3.64,2.41-7.66,3.87-12.07,4.38
			l-0.77-1.54c7.07,0,12.5,1.59,16.29,4.77c3.79,3.18,6,8.05,6.61,14.6l2.77,31.51h-20.29l-2.31-28.59
			c-0.31-4.41-1.72-7.61-4.23-9.61c-2.51-2-6.59-3-12.22-3h-26.13v41.2h-19.98V723.24z M467.14,769.35
			c3.43-2.87,5.15-6.92,5.15-12.14c0-5.33-1.74-9.43-5.23-12.3c-3.48-2.87-8.45-4.3-14.91-4.3h-23.52v33.05h24.44
			C459.01,773.66,463.7,772.22,467.14,769.35z"/>
		<path class="st5" d="M524.86,828.92c-6.05-3.54-10.74-8.53-14.07-14.99c-3.33-6.46-5-13.99-5-22.6c0-8.51,1.66-16.01,5-22.52
			c3.33-6.51,7.99-11.53,13.99-15.07c6-3.54,12.94-5.3,20.83-5.3c7.79,0,14.63,1.74,20.52,5.23c5.89,3.49,10.45,8.56,13.68,15.22
			c3.23,6.66,4.84,14.5,4.84,23.52v4.46h-58.42c0.31,7.07,2.23,12.45,5.77,16.14c3.54,3.69,8.27,5.53,14.22,5.53
			c4.41,0,8.04-0.97,10.91-2.92c2.87-1.95,4.92-4.77,6.15-8.45l20.14,1.23c-2.15,7.99-6.56,14.3-13.22,18.91
			c-6.66,4.61-14.71,6.92-24.13,6.92C537.98,834.22,530.9,832.46,524.86,828.92z M558.68,768.97c-3.28-3.33-7.64-4.99-13.07-4.99
			c-5.33,0-9.71,1.69-13.14,5.07c-3.43,3.38-5.51,8.25-6.23,14.6h37.97C563.8,777.19,561.96,772.3,558.68,768.97z"/>
		<path class="st5" d="M618.63,790.57l-28.59-40.28h21.37l18.91,27.98l18.29-27.98h21.83l-28.29,40.43l29.21,41.66h-21.21
			l-19.68-29.51l-19.68,29.51h-21.67L618.63,790.57z"/>
	</g>
	<g>
		<g>
			<path class="st5" d="M540,1059.57c-202.36,0-367-155.39-367-346.38h90.72c0,140.97,123.94,255.66,276.28,255.66V1059.57z"/>
		</g>
		<g>
			<g>
				<path class="st5" d="M173,713.19v-90.72c152.34,0,276.28-114.69,276.28-255.66S325.34,111.15,173,111.15V20.43
					c202.36,0,367,155.39,367,346.38S375.36,713.19,173,713.19z"/>
			</g>
			<g>
				<path class="st5" d="M907,713.19c-202.36,0-367-155.39-367-346.38S704.64,20.43,907,20.43v90.72
					c-152.34,0-276.28,114.69-276.28,255.66S754.66,622.47,907,622.47V713.19z"/>
			</g>
		</g>
		<g>
			<path class="st5" d="M540,1059.57v-90.72c152.34,0,276.28-114.69,276.28-255.66H907C907,904.19,742.36,1059.57,540,1059.57z"/>
		</g>
		<g>
			<rect x="256.44" y="321.45" class="st5" width="567.12" height="90.72"/>
		</g>
	</g>
</g>
</svg>
