<?xml version="1.0" encoding="utf-8"?>
<!-- Generator: Adobe Illustrator 27.3.1, SVG Export Plug-In . SVG Version: 6.00 Build 0)  -->
<svg version="1.1" id="Layer_1" xmlns="http://www.w3.org/2000/svg" xmlns:xlink="http://www.w3.org/1999/xlink" x="0px" y="0px"
	 viewBox="0 0 1080 1080" style="enable-background:new 0 0 1080 1080;" xml:space="preserve">
<style type="text/css">
	.st0{fill:none;stroke:#000000;stroke-width:22;stroke-miterlimit:10;}
	.st1{fill:none;}
	.st2{fill:none;stroke:#000000;stroke-width:0.5;stroke-miterlimit:10;}
	.st3{stroke:#FFFFFF;stroke-miterlimit:10;}
	.st4{fill:none;stroke:#000000;stroke-width:11;stroke-miterlimit:10;}
	.st5{fill:#FFFFFF;}
</style>
<g>
	<path d="M542.84,420.56c-1.88-13.43-2.84-27.12-2.84-41.03c0,13.9-0.96,27.6-2.84,41.03C515.84,573.8,376.69,692.55,208.65,692.83
		h81.46c0,127.5,112.1,231.23,249.89,231.23s249.89-103.73,249.89-231.23h81.46C703.31,692.55,564.16,573.8,542.84,420.56z
		 M471.48,812.77l-2.38-29.47c-0.32-4.54-1.77-7.84-4.36-9.9c-2.59-2.06-6.79-3.09-12.6-3.09h-26.92v42.46h-20.6V700.29h47.05
		c8.03,0,15.03,1.37,20.99,4.12c5.97,2.75,10.59,6.68,13.86,11.8s4.91,11.07,4.91,17.83c0,5.07-1.11,9.61-3.33,13.63
		c-2.22,4.01-5.2,7.26-8.95,9.73c-2.22,1.48-4.58,2.6-7.09,3.38c4.37,0.69,7.92,2.18,10.66,4.46c3.91,3.27,6.18,8.29,6.81,15.05
		l2.85,32.48H471.48z M586.02,776.17h-60.2c0.32,7.29,2.3,12.83,5.94,16.64c3.64,3.8,8.53,5.7,14.66,5.7c4.54,0,8.29-1,11.25-3.01
		c2.96-2.01,5.07-4.91,6.34-8.71l20.74,1.27c-2.22,8.24-6.76,14.74-13.61,19.49c-6.87,4.75-15.16,7.12-24.88,7.12
		c-8.35,0-15.63-1.81-21.87-5.45c-6.23-3.64-11.07-8.79-14.48-15.45c-3.43-6.65-5.15-14.42-5.15-23.29c0-8.77,1.72-16.49,5.15-23.2
		c3.42-6.71,8.23-11.88,14.41-15.53c6.18-3.64,13.34-5.47,21.47-5.47c8.03,0,15.08,1.8,21.15,5.39c6.06,3.59,10.77,8.82,14.09,15.69
		c3.33,6.87,4.99,14.95,4.99,24.23V776.17z M653.5,812.77l-20.27-30.42l-20.28,30.42h-22.34l30.42-43.1l-29.47-41.5h22.02
		L633.06,757l18.86-28.82h22.5l-29.15,41.66l30.11,42.94H653.5z M542.84,420.56c-1.88-13.43-2.84-27.12-2.84-41.03
		c0,13.9-0.96,27.6-2.84,41.03C515.84,573.8,376.69,692.55,208.65,692.83h81.46c0,127.5,112.1,231.23,249.89,231.23
		s249.89-103.73,249.89-231.23h81.46C703.31,692.55,564.16,573.8,542.84,420.56z M471.48,812.77l-2.38-29.47
		c-0.32-4.54-1.77-7.84-4.36-9.9c-2.59-2.06-6.79-3.09-12.6-3.09h-26.92v42.46h-20.6V700.29h47.05c8.03,0,15.03,1.37,20.99,4.12
		c5.97,2.75,10.59,6.68,13.86,11.8s4.91,11.07,4.91,17.83c0,5.07-1.11,9.61-3.33,13.63c-2.22,4.01-5.2,7.26-8.95,9.73
		c-2.22,1.48-4.58,2.6-7.09,3.38c4.37,0.69,7.92,2.18,10.66,4.46c3.91,3.27,6.18,8.29,6.81,15.05l2.85,32.48H471.48z M586.02,776.17
		h-60.2c0.32,7.29,2.3,12.83,5.94,16.64c3.64,3.8,8.53,5.7,14.66,5.7c4.54,0,8.29-1,11.25-3.01c2.96-2.01,5.07-4.91,6.34-8.71
		l20.74,1.27c-2.22,8.24-6.76,14.74-13.61,19.49c-6.87,4.75-15.16,7.12-24.88,7.12c-8.35,0-15.63-1.81-21.87-5.45
		c-6.23-3.64-11.07-8.79-14.48-15.45c-3.43-6.65-5.15-14.42-5.15-23.29c0-8.77,1.72-16.49,5.15-23.2
		c3.42-6.71,8.23-11.88,14.41-15.53c6.18-3.64,13.34-5.47,21.47-5.47c8.03,0,15.08,1.8,21.15,5.39c6.06,3.59,10.77,8.82,14.09,15.69
		c3.33,6.87,4.99,14.95,4.99,24.23V776.17z M653.5,812.77l-20.27-30.42l-20.28,30.42h-22.34l30.42-43.1l-29.47-41.5h22.02
		L633.06,757l18.86-28.82h22.5l-29.15,41.66l30.11,42.94H653.5z M542.84,420.56c-1.88-13.43-2.84-27.12-2.84-41.03
		c0,13.9-0.96,27.6-2.84,41.03C515.84,573.8,376.69,692.55,208.65,692.83h81.46c0,127.5,112.1,231.23,249.89,231.23
		s249.89-103.73,249.89-231.23h81.46C703.31,692.55,564.16,573.8,542.84,420.56z M471.48,812.77l-2.38-29.47
		c-0.32-4.54-1.77-7.84-4.36-9.9c-2.59-2.06-6.79-3.09-12.6-3.09h-26.92v42.46h-20.6V700.29h47.05c8.03,0,15.03,1.37,20.99,4.12
		c5.97,2.75,10.59,6.68,13.86,11.8s4.91,11.07,4.91,17.83c0,5.07-1.11,9.61-3.33,13.63c-2.22,4.01-5.2,7.26-8.95,9.73
		c-2.22,1.48-4.58,2.6-7.09,3.38c4.37,0.69,7.92,2.18,10.66,4.46c3.91,3.27,6.18,8.29,6.81,15.05l2.85,32.48H471.48z M586.02,776.17
		h-60.2c0.32,7.29,2.3,12.83,5.94,16.64c3.64,3.8,8.53,5.7,14.66,5.7c4.54,0,8.29-1,11.25-3.01c2.96-2.01,5.07-4.91,6.34-8.71
		l20.74,1.27c-2.22,8.24-6.76,14.74-13.61,19.49c-6.87,4.75-15.16,7.12-24.88,7.12c-8.35,0-15.63-1.81-21.87-5.45
		c-6.23-3.64-11.07-8.79-14.48-15.45c-3.43-6.65-5.15-14.42-5.15-23.29c0-8.77,1.72-16.49,5.15-23.2
		c3.42-6.71,8.23-11.88,14.41-15.53c6.18-3.64,13.34-5.47,21.47-5.47c8.03,0,15.08,1.8,21.15,5.39c6.06,3.59,10.77,8.82,14.09,15.69
		c3.33,6.87,4.99,14.95,4.99,24.23V776.17z M653.5,812.77l-20.27-30.42l-20.28,30.42h-22.34l30.42-43.1l-29.47-41.5h22.02
		L633.06,757l18.86-28.82h22.5l-29.15,41.66l30.11,42.94H653.5z M542.84,420.56c-1.88-13.43-2.84-27.12-2.84-41.03
		c0,13.9-0.96,27.6-2.84,41.03C515.84,573.8,376.69,692.55,208.65,692.83h81.46c0,127.5,112.1,231.23,249.89,231.23
		s249.89-103.73,249.89-231.23h81.46C703.31,692.55,564.16,573.8,542.84,420.56z M471.48,812.77l-2.38-29.47
		c-0.32-4.54-1.77-7.84-4.36-9.9c-2.59-2.06-6.79-3.09-12.6-3.09h-26.92v42.46h-20.6V700.29h47.05c8.03,0,15.03,1.37,20.99,4.12
		c5.97,2.75,10.59,6.68,13.86,11.8s4.91,11.07,4.91,17.83c0,5.07-1.11,9.61-3.33,13.63c-2.22,4.01-5.2,7.26-8.95,9.73
		c-2.22,1.48-4.58,2.6-7.09,3.38c4.37,0.69,7.92,2.18,10.66,4.46c3.91,3.27,6.18,8.29,6.81,15.05l2.85,32.48H471.48z M586.02,776.17
		h-60.2c0.32,7.29,2.3,12.83,5.94,16.64c3.64,3.8,8.53,5.7,14.66,5.7c4.54,0,8.29-1,11.25-3.01c2.96-2.01,5.07-4.91,6.34-8.71
		l20.74,1.27c-2.22,8.24-6.76,14.74-13.61,19.49c-6.87,4.75-15.16,7.12-24.88,7.12c-8.35,0-15.63-1.81-21.87-5.45
		c-6.23-3.64-11.07-8.79-14.48-15.45c-3.43-6.65-5.15-14.42-5.15-23.29c0-8.77,1.72-16.49,5.15-23.2
		c3.42-6.71,8.23-11.88,14.41-15.53c6.18-3.64,13.34-5.47,21.47-5.47c8.03,0,15.08,1.8,21.15,5.39c6.06,3.59,10.77,8.82,14.09,15.69
		c3.33,6.87,4.99,14.95,4.99,24.23V776.17z M653.5,812.77l-20.27-30.42l-20.28,30.42h-22.34l30.42-43.1l-29.47-41.5h22.02
		L633.06,757l18.86-28.82h22.5l-29.15,41.66l30.11,42.94H653.5z M542.84,420.56c-1.88-13.43-2.84-27.12-2.84-41.03
		c0,13.9-0.96,27.6-2.84,41.03C515.84,573.8,376.69,692.55,208.65,692.83h81.46c0,127.5,112.1,231.23,249.89,231.23
		s249.89-103.73,249.89-231.23h81.46C703.31,692.55,564.16,573.8,542.84,420.56z M471.48,812.77l-2.38-29.47
		c-0.32-4.54-1.77-7.84-4.36-9.9c-2.59-2.06-6.79-3.09-12.6-3.09h-26.92v42.46h-20.6V700.29h47.05c8.03,0,15.03,1.37,20.99,4.12
		c5.97,2.75,10.59,6.68,13.86,11.8s4.91,11.07,4.91,17.83c0,5.07-1.11,9.61-3.33,13.63c-2.22,4.01-5.2,7.26-8.95,9.73
		c-2.22,1.48-4.58,2.6-7.09,3.38c4.37,0.69,7.92,2.18,10.66,4.46c3.91,3.27,6.18,8.29,6.81,15.05l2.85,32.48H471.48z M586.02,776.17
		h-60.2c0.32,7.29,2.3,12.83,5.94,16.64c3.64,3.8,8.53,5.7,14.66,5.7c4.54,0,8.29-1,11.25-3.01c2.96-2.01,5.07-4.91,6.34-8.71
		l20.74,1.27c-2.22,8.24-6.76,14.74-13.61,19.49c-6.87,4.75-15.16,7.12-24.88,7.12c-8.35,0-15.63-1.81-21.87-5.45
		c-6.23-3.64-11.07-8.79-14.48-15.45c-3.43-6.65-5.15-14.42-5.15-23.29c0-8.77,1.72-16.49,5.15-23.2
		c3.42-6.71,8.23-11.88,14.41-15.53c6.18-3.64,13.34-5.47,21.47-5.47c8.03,0,15.08,1.8,21.15,5.39c6.06,3.59,10.77,8.82,14.09,15.69
		c3.33,6.87,4.99,14.95,4.99,24.23V776.17z M653.5,812.77l-20.27-30.42l-20.28,30.42h-22.34l30.42-43.1l-29.47-41.5h22.02
		L633.06,757l18.86-28.82h22.5l-29.15,41.66l30.11,42.94H653.5z M542.84,420.56c-1.88-13.43-2.84-27.12-2.84-41.03
		c0,13.9-0.96,27.6-2.84,41.03C515.84,573.8,376.69,692.55,208.65,692.83h81.46c0,127.5,112.1,231.23,249.89,231.23
		s249.89-103.73,249.89-231.23h81.46C703.31,692.55,564.16,573.8,542.84,420.56z M471.48,812.77l-2.38-29.47
		c-0.32-4.54-1.77-7.84-4.36-9.9c-2.59-2.06-6.79-3.09-12.6-3.09h-26.92v42.46h-20.6V700.29h47.05c8.03,0,15.03,1.37,20.99,4.12
		c5.97,2.75,10.59,6.68,13.86,11.8s4.91,11.07,4.91,17.83c0,5.07-1.11,9.61-3.33,13.63c-2.22,4.01-5.2,7.26-8.95,9.73
		c-2.22,1.48-4.58,2.6-7.09,3.38c4.37,0.69,7.92,2.18,10.66,4.46c3.91,3.27,6.18,8.29,6.81,15.05l2.85,32.48H471.48z M586.02,776.17
		h-60.2c0.32,7.29,2.3,12.83,5.94,16.64c3.64,3.8,8.53,5.7,14.66,5.7c4.54,0,8.29-1,11.25-3.01c2.96-2.01,5.07-4.91,6.34-8.71
		l20.74,1.27c-2.22,8.24-6.76,14.74-13.61,19.49c-6.87,4.75-15.16,7.12-24.88,7.12c-8.35,0-15.63-1.81-21.87-5.45
		c-6.23-3.64-11.07-8.79-14.48-15.45c-3.43-6.65-5.15-14.42-5.15-23.29c0-8.77,1.72-16.49,5.15-23.2
		c3.42-6.71,8.23-11.88,14.41-15.53c6.18-3.64,13.34-5.47,21.47-5.47c8.03,0,15.08,1.8,21.15,5.39c6.06,3.59,10.77,8.82,14.09,15.69
		c3.33,6.87,4.99,14.95,4.99,24.23V776.17z M653.5,812.77l-20.27-30.42l-20.28,30.42h-22.34l30.42-43.1l-29.47-41.5h22.02
		L633.06,757l18.86-28.82h22.5l-29.15,41.66l30.11,42.94H653.5z M542.84,420.56c-1.88-13.43-2.84-27.12-2.84-41.03
		c0,13.9-0.96,27.6-2.84,41.03C515.84,573.8,376.69,692.55,208.65,692.83h81.46c0,127.5,112.1,231.23,249.89,231.23
		s249.89-103.73,249.89-231.23h81.46C703.31,692.55,564.16,573.8,542.84,420.56z M471.48,812.77l-2.38-29.47
		c-0.32-4.54-1.77-7.84-4.36-9.9c-2.59-2.06-6.79-3.09-12.6-3.09h-26.92v42.46h-20.6V700.29h47.05c8.03,0,15.03,1.37,20.99,4.12
		c5.97,2.75,10.59,6.68,13.86,11.8s4.91,11.07,4.91,17.83c0,5.07-1.11,9.61-3.33,13.63c-2.22,4.01-5.2,7.26-8.95,9.73
		c-2.22,1.48-4.58,2.6-7.09,3.38c4.37,0.69,7.92,2.18,10.66,4.46c3.91,3.27,6.18,8.29,6.81,15.05l2.85,32.48H471.48z M586.02,776.17
		h-60.2c0.32,7.29,2.3,12.83,5.94,16.64c3.64,3.8,8.53,5.7,14.66,5.7c4.54,0,8.29-1,11.25-3.01c2.96-2.01,5.07-4.91,6.34-8.71
		l20.74,1.27c-2.22,8.24-6.76,14.74-13.61,19.49c-6.87,4.75-15.16,7.12-24.88,7.12c-8.35,0-15.63-1.81-21.87-5.45
		c-6.23-3.64-11.07-8.79-14.48-15.45c-3.43-6.65-5.15-14.42-5.15-23.29c0-8.77,1.72-16.49,5.15-23.2
		c3.42-6.71,8.23-11.88,14.41-15.53c6.18-3.64,13.34-5.47,21.47-5.47c8.03,0,15.08,1.8,21.15,5.39c6.06,3.59,10.77,8.82,14.09,15.69
		c3.33,6.87,4.99,14.95,4.99,24.23V776.17z M653.5,812.77l-20.27-30.42l-20.28,30.42h-22.34l30.42-43.1l-29.47-41.5h22.02
		L633.06,757l18.86-28.82h22.5l-29.15,41.66l30.11,42.94H653.5z M178.2,27.64v998.24h720.95V27.64H178.2z M577.02,1004.18
		c-12.16,1.28-24.51,1.94-37.02,1.94s-24.86-0.66-37.02-1.94c-159.19-16.74-284.75-140.19-294.32-292.61v-100.8
		c122.4-0.26,224.41-82.38,245.36-190.22H283.53V338.5h170.48C433.06,230.68,331.06,148.56,208.65,148.3V67.82h32.72
		C394.46,82.28,517.24,195.33,537.16,338.5c1.88,13.43,2.84,27.12,2.84,41.03c0-13.9,0.96-27.6,2.84-41.03
		c19.93-143.17,142.7-256.23,295.79-270.69h32.72v80.48c-122.4,0.26-224.41,82.38-245.36,190.21h170.48v82.05H625.99
		c20.96,107.84,122.96,189.96,245.36,190.22v100.8C861.77,863.99,736.21,987.44,577.02,1004.18z M540,924.06
		c137.79,0,249.89-103.73,249.89-231.23h81.46c-168.04-0.28-307.18-119.02-328.51-272.27c-1.88-13.43-2.84-27.12-2.84-41.03
		c0,13.9-0.96,27.6-2.84,41.03C515.84,573.8,376.69,692.55,208.65,692.83h81.46C290.11,820.33,402.21,924.06,540,924.06z
		 M591.56,728.17h22.02L633.06,757l18.86-28.82h22.5l-29.15,41.66l30.11,42.94H653.5l-20.27-30.42l-20.28,30.42h-22.34l30.42-43.1
		L591.56,728.17z M509.91,747.27c3.42-6.71,8.23-11.88,14.41-15.53c6.18-3.64,13.34-5.47,21.47-5.47c8.03,0,15.08,1.8,21.15,5.39
		c6.06,3.59,10.77,8.82,14.09,15.69c3.33,6.87,4.99,14.95,4.99,24.23v4.6h-60.2c0.32,7.29,2.3,12.83,5.94,16.64
		c3.64,3.8,8.53,5.7,14.66,5.7c4.54,0,8.29-1,11.25-3.01c2.96-2.01,5.07-4.91,6.34-8.71l20.74,1.27
		c-2.22,8.24-6.76,14.74-13.61,19.49c-6.87,4.75-15.16,7.12-24.88,7.12c-8.35,0-15.63-1.81-21.87-5.45
		c-6.23-3.64-11.07-8.79-14.48-15.45c-3.43-6.65-5.15-14.42-5.15-23.29C504.76,761.7,506.47,753.98,509.91,747.27z M404.63,700.29
		h47.05c8.03,0,15.03,1.37,20.99,4.12c5.97,2.75,10.59,6.68,13.86,11.8s4.91,11.07,4.91,17.83c0,5.07-1.11,9.61-3.33,13.63
		c-2.22,4.01-5.2,7.26-8.95,9.73c-2.22,1.48-4.58,2.6-7.09,3.38c4.37,0.69,7.92,2.18,10.66,4.46c3.91,3.27,6.18,8.29,6.81,15.05
		l2.85,32.48h-20.92l-2.38-29.47c-0.32-4.54-1.77-7.84-4.36-9.9c-2.59-2.06-6.79-3.09-12.6-3.09h-26.92v42.46h-20.6V700.29z
		 M542.84,420.56c-1.88-13.43-2.84-27.12-2.84-41.03c0,13.9-0.96,27.6-2.84,41.03C515.84,573.8,376.69,692.55,208.65,692.83h81.46
		c0,127.5,112.1,231.23,249.89,231.23s249.89-103.73,249.89-231.23h81.46C703.31,692.55,564.16,573.8,542.84,420.56z M471.48,812.77
		l-2.38-29.47c-0.32-4.54-1.77-7.84-4.36-9.9c-2.59-2.06-6.79-3.09-12.6-3.09h-26.92v42.46h-20.6V700.29h47.05
		c8.03,0,15.03,1.37,20.99,4.12c5.97,2.75,10.59,6.68,13.86,11.8s4.91,11.07,4.91,17.83c0,5.07-1.11,9.61-3.33,13.63
		c-2.22,4.01-5.2,7.26-8.95,9.73c-2.22,1.48-4.58,2.6-7.09,3.38c4.37,0.69,7.92,2.18,10.66,4.46c3.91,3.27,6.18,8.29,6.81,15.05
		l2.85,32.48H471.48z M586.02,776.17h-60.2c0.32,7.29,2.3,12.83,5.94,16.64c3.64,3.8,8.53,5.7,14.66,5.7c4.54,0,8.29-1,11.25-3.01
		c2.96-2.01,5.07-4.91,6.34-8.71l20.74,1.27c-2.22,8.24-6.76,14.74-13.61,19.49c-6.87,4.75-15.16,7.12-24.88,7.12
		c-8.35,0-15.63-1.81-21.87-5.45c-6.23-3.64-11.07-8.79-14.48-15.45c-3.43-6.65-5.15-14.42-5.15-23.29c0-8.77,1.72-16.49,5.15-23.2
		c3.42-6.71,8.23-11.88,14.41-15.53c6.18-3.64,13.34-5.47,21.47-5.47c8.03,0,15.08,1.8,21.15,5.39c6.06,3.59,10.77,8.82,14.09,15.69
		c3.33,6.87,4.99,14.95,4.99,24.23V776.17z M653.5,812.77l-20.27-30.42l-20.28,30.42h-22.34l30.42-43.1l-29.47-41.5h22.02
		L633.06,757l18.86-28.82h22.5l-29.15,41.66l30.11,42.94H653.5z M542.84,420.56c-1.88-13.43-2.84-27.12-2.84-41.03
		c0,13.9-0.96,27.6-2.84,41.03C515.84,573.8,376.69,692.55,208.65,692.83h81.46c0,127.5,112.1,231.23,249.89,231.23
		s249.89-103.73,249.89-231.23h81.46C703.31,692.55,564.16,573.8,542.84,420.56z M471.48,812.77l-2.38-29.47
		c-0.32-4.54-1.77-7.84-4.36-9.9c-2.59-2.06-6.79-3.09-12.6-3.09h-26.92v42.46h-20.6V700.29h47.05c8.03,0,15.03,1.37,20.99,4.12
		c5.97,2.75,10.59,6.68,13.86,11.8s4.91,11.07,4.91,17.83c0,5.07-1.11,9.61-3.33,13.63c-2.22,4.01-5.2,7.26-8.95,9.73
		c-2.22,1.48-4.58,2.6-7.09,3.38c4.37,0.69,7.92,2.18,10.66,4.46c3.91,3.27,6.18,8.29,6.81,15.05l2.85,32.48H471.48z M586.02,776.17
		h-60.2c0.32,7.29,2.3,12.83,5.94,16.64c3.64,3.8,8.53,5.7,14.66,5.7c4.54,0,8.29-1,11.25-3.01c2.96-2.01,5.07-4.91,6.34-8.71
		l20.74,1.27c-2.22,8.24-6.76,14.74-13.61,19.49c-6.87,4.75-15.16,7.12-24.88,7.12c-8.35,0-15.63-1.81-21.87-5.45
		c-6.23-3.64-11.07-8.79-14.48-15.45c-3.43-6.65-5.15-14.42-5.15-23.29c0-8.77,1.72-16.49,5.15-23.2
		c3.42-6.71,8.23-11.88,14.41-15.53c6.18-3.64,13.34-5.47,21.47-5.47c8.03,0,15.08,1.8,21.15,5.39c6.06,3.59,10.77,8.82,14.09,15.69
		c3.33,6.87,4.99,14.95,4.99,24.23V776.17z M653.5,812.77l-20.27-30.42l-20.28,30.42h-22.34l30.42-43.1l-29.47-41.5h22.02
		L633.06,757l18.86-28.82h22.5l-29.15,41.66l30.11,42.94H653.5z M542.84,420.56c-1.88-13.43-2.84-27.12-2.84-41.03
		c0,13.9-0.96,27.6-2.84,41.03C515.84,573.8,376.69,692.55,208.65,692.83h81.46c0,127.5,112.1,231.23,249.89,231.23
		s249.89-103.73,249.89-231.23h81.46C703.31,692.55,564.16,573.8,542.84,420.56z M471.48,812.77l-2.38-29.47
		c-0.32-4.54-1.77-7.84-4.36-9.9c-2.59-2.06-6.79-3.09-12.6-3.09h-26.92v42.46h-20.6V700.29h47.05c8.03,0,15.03,1.37,20.99,4.12
		c5.97,2.75,10.59,6.68,13.86,11.8s4.91,11.07,4.91,17.83c0,5.07-1.11,9.61-3.33,13.63c-2.22,4.01-5.2,7.26-8.95,9.73
		c-2.22,1.48-4.58,2.6-7.09,3.38c4.37,0.69,7.92,2.18,10.66,4.46c3.91,3.27,6.18,8.29,6.81,15.05l2.85,32.48H471.48z M586.02,776.17
		h-60.2c0.32,7.29,2.3,12.83,5.94,16.64c3.64,3.8,8.53,5.7,14.66,5.7c4.54,0,8.29-1,11.25-3.01c2.96-2.01,5.07-4.91,6.34-8.71
		l20.74,1.27c-2.22,8.24-6.76,14.74-13.61,19.49c-6.87,4.75-15.16,7.12-24.88,7.12c-8.35,0-15.63-1.81-21.87-5.45
		c-6.23-3.64-11.07-8.79-14.48-15.45c-3.43-6.65-5.15-14.42-5.15-23.29c0-8.77,1.72-16.49,5.15-23.2
		c3.42-6.71,8.23-11.88,14.41-15.53c6.18-3.64,13.34-5.47,21.47-5.47c8.03,0,15.08,1.8,21.15,5.39c6.06,3.59,10.77,8.82,14.09,15.69
		c3.33,6.87,4.99,14.95,4.99,24.23V776.17z M653.5,812.77l-20.27-30.42l-20.28,30.42h-22.34l30.42-43.1l-29.47-41.5h22.02
		L633.06,757l18.86-28.82h22.5l-29.15,41.66l30.11,42.94H653.5z M542.84,420.56c-1.88-13.43-2.84-27.12-2.84-41.03
		c0,13.9-0.96,27.6-2.84,41.03C515.84,573.8,376.69,692.55,208.65,692.83h81.46c0,127.5,112.1,231.23,249.89,231.23
		s249.89-103.73,249.89-231.23h81.46C703.31,692.55,564.16,573.8,542.84,420.56z M471.48,812.77l-2.38-29.47
		c-0.32-4.54-1.77-7.84-4.36-9.9c-2.59-2.06-6.79-3.09-12.6-3.09h-26.92v42.46h-20.6V700.29h47.05c8.03,0,15.03,1.37,20.99,4.12
		c5.97,2.75,10.59,6.68,13.86,11.8s4.91,11.07,4.91,17.83c0,5.07-1.11,9.61-3.33,13.63c-2.22,4.01-5.2,7.26-8.95,9.73
		c-2.22,1.48-4.58,2.6-7.09,3.38c4.37,0.69,7.92,2.18,10.66,4.46c3.91,3.27,6.18,8.29,6.81,15.05l2.85,32.48H471.48z M586.02,776.17
		h-60.2c0.32,7.29,2.3,12.83,5.94,16.64c3.64,3.8,8.53,5.7,14.66,5.7c4.54,0,8.29-1,11.25-3.01c2.96-2.01,5.07-4.91,6.34-8.71
		l20.74,1.27c-2.22,8.24-6.76,14.74-13.61,19.49c-6.87,4.75-15.16,7.12-24.88,7.12c-8.35,0-15.63-1.81-21.87-5.45
		c-6.23-3.64-11.07-8.79-14.48-15.45c-3.43-6.65-5.15-14.42-5.15-23.29c0-8.77,1.72-16.49,5.15-23.2
		c3.42-6.71,8.23-11.88,14.41-15.53c6.18-3.64,13.34-5.47,21.47-5.47c8.03,0,15.08,1.8,21.15,5.39c6.06,3.59,10.77,8.82,14.09,15.69
		c3.33,6.87,4.99,14.95,4.99,24.23V776.17z M653.5,812.77l-20.27-30.42l-20.28,30.42h-22.34l30.42-43.1l-29.47-41.5h22.02
		L633.06,757l18.86-28.82h22.5l-29.15,41.66l30.11,42.94H653.5z M542.84,420.56c-1.88-13.43-2.84-27.12-2.84-41.03
		c0,13.9-0.96,27.6-2.84,41.03C515.84,573.8,376.69,692.55,208.65,692.83h81.46c0,127.5,112.1,231.23,249.89,231.23
		s249.89-103.73,249.89-231.23h81.46C703.31,692.55,564.16,573.8,542.84,420.56z M471.48,812.77l-2.38-29.47
		c-0.32-4.54-1.77-7.84-4.36-9.9c-2.59-2.06-6.79-3.09-12.6-3.09h-26.92v42.46h-20.6V700.29h47.05c8.03,0,15.03,1.37,20.99,4.12
		c5.97,2.75,10.59,6.68,13.86,11.8s4.91,11.07,4.91,17.83c0,5.07-1.11,9.61-3.33,13.63c-2.22,4.01-5.2,7.26-8.95,9.73
		c-2.22,1.48-4.58,2.6-7.09,3.38c4.37,0.69,7.92,2.18,10.66,4.46c3.91,3.27,6.18,8.29,6.81,15.05l2.85,32.48H471.48z M586.02,776.17
		h-60.2c0.32,7.29,2.3,12.83,5.94,16.64c3.64,3.8,8.53,5.7,14.66,5.7c4.54,0,8.29-1,11.25-3.01c2.96-2.01,5.07-4.91,6.34-8.71
		l20.74,1.27c-2.22,8.24-6.76,14.74-13.61,19.49c-6.87,4.75-15.16,7.12-24.88,7.12c-8.35,0-15.63-1.81-21.87-5.45
		c-6.23-3.64-11.07-8.79-14.48-15.45c-3.43-6.65-5.15-14.42-5.15-23.29c0-8.77,1.72-16.49,5.15-23.2
		c3.42-6.71,8.23-11.88,14.41-15.53c6.18-3.64,13.34-5.47,21.47-5.47c8.03,0,15.08,1.8,21.15,5.39c6.06,3.59,10.77,8.82,14.09,15.69
		c3.33,6.87,4.99,14.95,4.99,24.23V776.17z M653.5,812.77l-20.27-30.42l-20.28,30.42h-22.34l30.42-43.1l-29.47-41.5h22.02
		L633.06,757l18.86-28.82h22.5l-29.15,41.66l30.11,42.94H653.5z M542.84,420.56c-1.88-13.43-2.84-27.12-2.84-41.03
		c0,13.9-0.96,27.6-2.84,41.03C515.84,573.8,376.69,692.55,208.65,692.83h81.46c0,127.5,112.1,231.23,249.89,231.23
		s249.89-103.73,249.89-231.23h81.46C703.31,692.55,564.16,573.8,542.84,420.56z M471.48,812.77l-2.38-29.47
		c-0.32-4.54-1.77-7.84-4.36-9.9c-2.59-2.06-6.79-3.09-12.6-3.09h-26.92v42.46h-20.6V700.29h47.05c8.03,0,15.03,1.37,20.99,4.12
		c5.97,2.75,10.59,6.68,13.86,11.8s4.91,11.07,4.91,17.83c0,5.07-1.11,9.61-3.33,13.63c-2.22,4.01-5.2,7.26-8.95,9.73
		c-2.22,1.48-4.58,2.6-7.09,3.38c4.37,0.69,7.92,2.18,10.66,4.46c3.91,3.27,6.18,8.29,6.81,15.05l2.85,32.48H471.48z M586.02,776.17
		h-60.2c0.32,7.29,2.3,12.83,5.94,16.64c3.64,3.8,8.53,5.7,14.66,5.7c4.54,0,8.29-1,11.25-3.01c2.96-2.01,5.07-4.91,6.34-8.71
		l20.74,1.27c-2.22,8.24-6.76,14.74-13.61,19.49c-6.87,4.75-15.16,7.12-24.88,7.12c-8.35,0-15.63-1.81-21.87-5.45
		c-6.23-3.64-11.07-8.79-14.48-15.45c-3.43-6.65-5.15-14.42-5.15-23.29c0-8.77,1.72-16.49,5.15-23.2
		c3.42-6.71,8.23-11.88,14.41-15.53c6.18-3.64,13.34-5.47,21.47-5.47c8.03,0,15.08,1.8,21.15,5.39c6.06,3.59,10.77,8.82,14.09,15.69
		c3.33,6.87,4.99,14.95,4.99,24.23V776.17z M653.5,812.77l-20.27-30.42l-20.28,30.42h-22.34l30.42-43.1l-29.47-41.5h22.02
		L633.06,757l18.86-28.82h22.5l-29.15,41.66l30.11,42.94H653.5z M542.84,420.56c-1.88-13.43-2.84-27.12-2.84-41.03
		c0,13.9-0.96,27.6-2.84,41.03C515.84,573.8,376.69,692.55,208.65,692.83h81.46c0,127.5,112.1,231.23,249.89,231.23
		s249.89-103.73,249.89-231.23h81.46C703.31,692.55,564.16,573.8,542.84,420.56z M471.48,812.77l-2.38-29.47
		c-0.32-4.54-1.77-7.84-4.36-9.9c-2.59-2.06-6.79-3.09-12.6-3.09h-26.92v42.46h-20.6V700.29h47.05c8.03,0,15.03,1.37,20.99,4.12
		c5.97,2.75,10.59,6.68,13.86,11.8s4.91,11.07,4.91,17.83c0,5.07-1.11,9.61-3.33,13.63c-2.22,4.01-5.2,7.26-8.95,9.73
		c-2.22,1.48-4.58,2.6-7.09,3.38c4.37,0.69,7.92,2.18,10.66,4.46c3.91,3.27,6.18,8.29,6.81,15.05l2.85,32.48H471.48z M586.02,776.17
		h-60.2c0.32,7.29,2.3,12.83,5.94,16.64c3.64,3.8,8.53,5.7,14.66,5.7c4.54,0,8.29-1,11.25-3.01c2.96-2.01,5.07-4.91,6.34-8.71
		l20.74,1.27c-2.22,8.24-6.76,14.74-13.61,19.49c-6.87,4.75-15.16,7.12-24.88,7.12c-8.35,0-15.63-1.81-21.87-5.45
		c-6.23-3.64-11.07-8.79-14.48-15.45c-3.43-6.65-5.15-14.42-5.15-23.29c0-8.77,1.72-16.49,5.15-23.2
		c3.42-6.71,8.23-11.88,14.41-15.53c6.18-3.64,13.34-5.47,21.47-5.47c8.03,0,15.08,1.8,21.15,5.39c6.06,3.59,10.77,8.82,14.09,15.69
		c3.33,6.87,4.99,14.95,4.99,24.23V776.17z M653.5,812.77l-20.27-30.42l-20.28,30.42h-22.34l30.42-43.1l-29.47-41.5h22.02
		L633.06,757l18.86-28.82h22.5l-29.15,41.66l30.11,42.94H653.5z"/>
	<g>
		<path d="M208.65,692.83v18.75c-0.4-6.21-0.59-12.45-0.59-18.75H208.65z"/>
	</g>
	<g>
		<g>
			<rect x="208.06" y="610.78" width="0.59" height="82.05"/>
			<path d="M241.37,67.82h-32.72v80.48h-0.59V66.25C219.3,66.25,230.41,66.77,241.37,67.82z"/>
		</g>
		<g>
			<path d="M871.94,66.25v82.05h-0.59V67.82h-32.72C849.59,66.77,860.7,66.25,871.94,66.25z"/>
			<rect x="871.35" y="610.78" width="0.59" height="82.05"/>
		</g>
	</g>
	<g>
		<path d="M871.94,692.83c0,6.3-0.2,12.54-0.59,18.75v-18.75H871.94z"/>
	</g>
	<g>
		<path d="M540,379.53c0,13.9,0.96,27.6,2.84,41.03h-5.68C539.04,407.13,540,393.43,540,379.53z"/>
		<path d="M542.84,338.5c-1.88,13.43-2.84,27.12-2.84,41.03c0-13.9-0.96-27.6-2.84-41.03H542.84z"/>
	</g>
	<g>
		<path d="M165,25.47v1021.06h750V25.47H165z M208.65,67.82h662.69v936.36H577.02c-12.16,1.28-24.51,1.94-37.02,1.94
			s-24.86-0.66-37.02-1.94H208.65V67.82z"/>
	</g>
	<g>
		<path d="M470.22,735.3c0,5.39-1.77,9.56-5.31,12.52c-3.54,2.96-8.37,4.44-14.5,4.44h-25.18v-34.07h24.23
			c6.65,0,11.78,1.48,15.37,4.44C468.42,725.59,470.22,729.81,470.22,735.3z"/>
		<path d="M564.96,762.54h-39.14c0.74-6.54,2.88-11.55,6.42-15.04c3.54-3.49,8.05-5.23,13.55-5.23c5.6,0,10.09,1.72,13.47,5.15
			C562.63,750.86,564.53,755.89,564.96,762.54z"/>
	</g>
</g>
</svg>
